<?xml version="1.0" encoding="UTF-8"?><svg id="Layer_2" xmlns="http://www.w3.org/2000/svg" viewBox="0 0 268.27 58.19"><defs><style>.cls-1{fill:#fff;}</style></defs><g id="Layer_1-2"><path class="cls-1" d="M0,4.91c4.36,0,7.9,3.54,7.9,7.9v23.62c0,4.49.73,7.78,2.2,9.86,2.19,3,5.28,4.51,9.25,4.51s7.1-1.5,9.29-4.51c1.47-2.01,2.2-5.3,2.2-9.86V4.91h0c4.36,0,7.89,3.53,7.89,7.89v25.79c0,5.51-1.72,10.06-5.15,13.62-3.86,3.98-8.61,5.97-14.24,5.97s-10.36-1.99-14.2-5.97c-3.43-3.57-5.15-8.11-5.15-13.62V4.91h0Z"/><path class="cls-1" d="M50.36,24.23h7.63v2.95c1.4-1.47,2.64-2.47,3.73-3.02,1.11-.56,2.42-.85,3.93-.85,2.01,0,4.11.65,6.3,1.96l-3.49,6.98c-1.45-1.04-2.86-1.56-4.24-1.56-4.15,0-6.23,3.14-6.23,9.42v9.49c0,4.21-3.42,7.63-7.63,7.63h0V24.23Z"/><path class="cls-1" d="M83.94,7.63v20.43c3.75-3.89,8.12-5.39,13.1-4.49,3.04.55,5.9,2.1,8.03,4.34,3.2,3.36,4.8,7.6,4.8,12.72s-1.49,9.29-4.47,12.61c-2.96,3.3-6.7,4.95-11.22,4.95-3.82,0-7.23-1.47-10.23-4.41v3.46h-7.63V0h0c4.21,0,7.63,3.42,7.63,7.63ZM102.07,40.97c0-3.16-.86-5.74-2.57-7.73-1.74-2.03-3.92-3.05-6.54-3.05-2.8,0-5.09.98-6.85,2.95-1.74,1.94-2.61,4.47-2.61,7.59s.86,5.77,2.58,7.69c1.72,1.97,3.97,2.95,6.78,2.95,2.64,0,4.84-.98,6.57-2.95,1.76-1.99,2.64-4.47,2.64-7.45Z"/><path class="cls-1" d="M142.27,24.23h0c4.23,0,7.66,3.43,7.66,7.66v25.35h-7.66v-3.46c-3.14,2.94-6.52,4.41-10.13,4.41-4.56,0-8.34-1.65-11.32-4.95-2.96-3.37-4.44-7.57-4.44-12.61s1.54-9.22,4.61-12.55c2.11-2.29,4.97-3.88,8.02-4.47,5.04-.98,9.46.51,13.27,4.45v-3.83ZM124.17,40.63c0,3.16.85,5.74,2.54,7.73,1.74,2.01,3.93,3.02,6.57,3.02,2.82,0,5.11-.97,6.85-2.92,1.74-2.01,2.61-4.56,2.61-7.66s-.87-5.65-2.61-7.66c-1.74-1.97-4-2.95-6.78-2.95-2.62,0-4.81.99-6.57,2.98-1.74,2.01-2.61,4.5-2.61,7.46Z"/><path class="cls-1" d="M159.55,24.23h7.66v3.05c2.67-2.64,5.67-3.96,9.01-3.96,3.84,0,6.83,1.21,8.98,3.63,1.85,2.06,2.78,5.41,2.78,10.07v12.57c0,4.23-3.43,7.66-7.66,7.66h0v-18.44c0-3.25-.45-5.5-1.35-6.74-.88-1.27-2.49-1.9-4.82-1.9-2.53,0-4.32.84-5.39,2.51-1.04,1.65-1.56,4.53-1.56,8.64v8.27c0,4.23-3.43,7.66-7.66,7.66h0V24.23Z"/><path class="cls-1" d="M227.67,42.53h-23.66c.2,2.71,1.08,4.87,2.64,6.47,1.56,1.58,3.56,2.37,6,2.37,1.9,0,3.47-.45,4.71-1.36,1.22-.9,2.61-2.57,4.17-5.02l6.44,3.59c-1,1.69-2.04,3.14-3.15,4.35s-2.29,2.2-3.56,2.98c-1.27.78-2.63,1.35-4.1,1.71-1.47.36-3.06.54-4.78.54-4.92,0-8.88-1.58-11.86-4.74-2.99-3.19-4.48-7.41-4.48-12.67s1.45-9.44,4.34-12.67c2.91-3.19,6.78-4.78,11.59-4.78s8.7,1.55,11.52,4.64c2.8,3.07,4.2,7.33,4.2,12.78l-.03,1.8ZM219.84,36.29c-1.06-4.07-3.63-6.1-7.7-6.1-.92,0-1.79.14-2.61.42s-1.56.69-2.22,1.22c-.66.53-1.24,1.17-1.71,1.92s-.83,1.59-1.08,2.54h15.32Z"/><path class="cls-1" d="M241.48,43.57c2.01-2.45,2.05-5.97.1-8.46l-8.52-10.88h5.74c2.11,0,4.09.98,5.37,2.66h0c2.69,3.52,7.99,3.55,10.71.05l.07-.1c1.28-1.65,3.25-2.61,5.34-2.61h6.05l-8.81,10.94c-1.98,2.46-2,5.96-.04,8.44l10.78,13.63h-5.8c-2.08,0-4.04-.95-5.32-2.58l-2.41-3.07c-2.69-3.42-7.86-3.45-10.58-.06l-2.57,3.19c-1.28,1.59-3.22,2.52-5.27,2.52h-6.08l11.23-13.67Z"/></g></svg>