<?xml version="1.0" encoding="UTF-8"?>
<svg id="Layer_1" xmlns="http://www.w3.org/2000/svg" xmlns:xlink="http://www.w3.org/1999/xlink" version="1.1" viewBox="0 0 265.1 175.4">
  <!-- Generator: Adobe Illustrator 29.8.2, SVG Export Plug-In . SVG Version: 2.1.1 Build 3)  -->
  <defs>
    <style>
      .st0, .st1 {
        fill: none;
      }

      .st2 {
        fill: #231f20;
      }

      .st2, .st1, .st3, .st4, .st5 {
        stroke: #231f20;
        stroke-linecap: round;
        stroke-linejoin: round;
        stroke-width: 2px;
      }

      .st3 {
        fill: #a3a3a6;
      }

      .st6 {
        isolation: isolate;
      }

      .st7 {
        clip-path: url(#clippath-1);
      }

      .st8 {
        clip-path: url(#clippath-2);
      }

      .st4 {
        fill: #fff1dd;
      }

      .st9 {
        clip-path: url(#clippath);
      }

      .st5 {
        fill: #e5cf98;
      }
    </style>
    <clipPath id="clippath">
      <path class="st0" d="M258,152.1h0s-12.6-1-25.2-2.1c-2.9-.2-5.7,1.1-7.3,3.5,0,0-4.2,5.8-6.5,9.1-1,1.4-2.3,2.7-3.7,3.6l-.5.3c-2.1,1.1-8.6,2.4-10.5,2.7-1.2.2-2.2.9-2.7,2l-1,2.1c-.3.7-1.1,1.1-1.9,1-.2,0-.3,0-.5-.2-.9-.4-1.2-1.5-.8-2.4l1-2.1c.9-1.9,2.7-3.3,4.7-3.8-.2,0-.4,0-.6,0-1.8-.3-3.3.5-4,2l-1,2.1c-.3.7-1.1,1.1-1.9,1-.2,0-.3,0-.5-.2-.9-.4-1.2-1.5-.8-2.3l1-2.1c1.2-2.6,3.9-4.2,6.7-4l-1.6-.3h-.2c-1.7-.6-3.6.2-4.4,1.9l-1,2.1c-.4.7-1.1,1.1-1.9,1-.2,0-.3,0-.5-.2-.9-.4-1.2-1.5-.8-2.3l1-2.1c1.5-3.1,5-4.7,8.4-3.8l10.3.3c5.3-1,2.1-10.6-2.5-11-.5,0-.8,0-1,0-18.3-2.2-33.1-17-35.3-35.3-1.6-13.2,3.1-25.3,11.6-33.8,1-1,2.1-1.9,3.1-2.8-3.4.6-6.8.2-9.9-1-2.1-.8-4.4-.7-6.6,0l-6.4,4.2,3.5-6.9c.3-.8.4-1.7.4-2.5,0-1.5-.3-2.9-1-4.3-.5-1.1-.9-2.2-1.2-3.4-1.1-4.9-.2-9.9,2.3-13.9,2.5-4,6.5-7,11.4-8.1,4.9-1.1,9.9-.2,13.8,2.3,4,2.5,7,6.5,8.2,11.4,1.1,4.9,5.7,13.1,10.9,13.1,11.2,0,21.4,4.6,28.7,11.9,7.3,7.4,11.9,17.5,11.9,28.7,0,16.7,5.9,28.9,9.6,35,2.5,4.1-.3,9.6-5.1,9.6h0Z"/>
    </clipPath>
    <clipPath id="clippath-1">
      <rect class="st0" x="151.5" y="26.6" width="125.6" height="160.8"/>
    </clipPath>
    <clipPath id="clippath-2">
      <rect class="st0" x="151.5" y="26.6" width="125.6" height="160.8"/>
    </clipPath>
  </defs>
  <g class="st9">
    <g class="st7">
      <g class="st8">
        <image class="st6" width="131" height="169" transform="translate(151.4 26.1) scale(1)" xlink:href="Urbanex_mail-1.png"/>
      </g>
    </g>
  </g>
  <path class="st1" d="M258,152.1h0s-12.6-1-25.2-2.1c-2.9-.2-5.7,1.1-7.3,3.5,0,0-4.2,5.8-6.5,9.1-1,1.4-2.3,2.7-3.7,3.6l-.5.3c-2.1,1.1-8.6,2.4-10.5,2.7-1.2.2-2.2.9-2.7,2l-1,2.1c-.3.7-1.1,1.1-1.9,1-.2,0-.3,0-.5-.2-.9-.4-1.2-1.5-.8-2.4l1-2.1c.9-1.9,2.7-3.3,4.7-3.8-.2,0-.4,0-.6,0-1.8-.3-3.3.5-4,2l-1,2.1c-.3.7-1.1,1.1-1.9,1-.2,0-.3,0-.5-.2-.9-.4-1.2-1.5-.8-2.3l1-2.1c1.2-2.6,3.9-4.2,6.7-4l-1.6-.3h-.2c-1.7-.6-3.6.2-4.4,1.9l-1,2.1c-.4.7-1.1,1.1-1.9,1-.2,0-.3,0-.5-.2-.9-.4-1.2-1.5-.8-2.3l1-2.1c1.5-3.1,5-4.7,8.4-3.8l10.3.3c5.3-1,2.1-10.6-2.5-11-.5,0-.8,0-1-.1-18.3-2.2-33.1-17-35.3-35.3-1.6-13.2,3.1-25.3,11.6-33.8,1-1,2.1-1.9,3.1-2.8-3.4.6-6.8.2-9.9-1-2.1-.8-4.4-.7-6.6,0l-6.4,4.2,3.5-6.9c.3-.8.4-1.7.4-2.5,0-1.5-.3-2.9-1-4.3-.5-1.1-.9-2.2-1.2-3.4-1.1-4.9-.2-9.9,2.3-13.9,2.5-4,6.5-7,11.4-8.1,4.9-1.1,9.9-.2,13.8,2.3,4,2.5,7,6.5,8.2,11.4s5.7,13.1,10.9,13.1c11.2,0,21.4,4.6,28.7,11.9,7.3,7.4,11.9,17.5,11.9,28.7,0,16.7,5.9,28.9,9.6,35,2.5,4.1-.3,9.6-5.1,9.6h0Z"/>
  <path class="st2" d="M179.2,63.5c0,1.7-1.4,3.1-3.1,3.1s-3.2-1.4-3.1-3.1c.1-1.6,1.5-.9,3.1-.8,1.4,0,3.1.8,3.1.8Z"/>
  <path class="st5" d="M203.1,82.7l-33.1,21c-1.7,1.1-3.9.6-5.1-.9l-23.3-31.5c.1-.2.3-.3.4-.4,1.1-1.2,2.8-1.8,4.5-1.4l52.6,9.8c1.7.3,3.1,1.5,3.7,3,0,.2.1.4.2.6h0Z"/>
  <path class="st5" d="M203.2,85l-5.5,29.3c-.5,2.7-3.1,4.5-5.9,4l-52.6-9.8c-2.7-.5-4.5-3.1-4-5.9l5.5-29.3c.2-.8.5-1.5,1-2.1l23.3,31.5c1.2,1.6,3.4,2,5.1.9l33.1-21c.2.7.3,1.5.1,2.3h0Z"/>
  <path class="st3" d="M179.2,75.3c-2.1-.9-5.5.9-7.6,1.6l-7.1,3.2,3.6-6.8c.8-2.3.5-4.7-.4-6.9"/>
  <circle class="st4" cx="170" cy="69.8" r="3.1"/>
  <path class="st1" d="M209.1,122.6c3.2,8.4,11.3,14,20.3,14.8"/>
  <path class="st1" d="M234.1,135s2.9,4.8,13.5,3.1"/>
  <path class="st1" d="M241,140s2.9,4.8,13.5,3.1"/>
</svg>