<?xml version="1.0" encoding="UTF-8"?>
<svg id="Layer_1" xmlns="http://www.w3.org/2000/svg" xmlns:xlink="http://www.w3.org/1999/xlink" version="1.1" viewBox="0 0 265.1 175.4">
  <!-- Generator: Adobe Illustrator 29.8.2, SVG Export Plug-In . SVG Version: 2.1.1 Build 3)  -->
  <defs>
    <style>
      .st0, .st1 {
        fill: none;
      }

      .st2, .st3 {
        fill: #231f20;
      }

      .st2, .st1, .st4, .st5, .st6, .st7 {
        stroke: #231f20;
        stroke-linecap: round;
        stroke-linejoin: round;
        stroke-width: 2px;
      }

      .st4 {
        fill: #a3a3a6;
      }

      .st8 {
        isolation: isolate;
      }

      .st9 {
        clip-path: url(#clippath-1);
      }

      .st10 {
        clip-path: url(#clippath-2);
      }

      .st5 {
        fill: #fff;
      }

      .st6 {
        fill: #fff1dd;
      }

      .st11 {
        clip-path: url(#clippath);
      }

      .st7 {
        fill: #e5cf98;
      }
    </style>
    <clipPath id="clippath">
      <path class="st0" d="M258,152.1h0s-12.6-1-25.2-2.1c-2.9-.2-5.7,1.1-7.3,3.5,0,0-4.2,5.8-6.5,9.1-1,1.4-2.3,2.7-3.7,3.6l-.5.3c-2.1,1.1-8.6,2.4-10.5,2.7-1.2.2-2.2.9-2.7,2l-1,2.1c-.3.7-1.1,1.1-1.9,1-.2,0-.3,0-.5-.2-.9-.4-1.2-1.5-.8-2.4l1-2.1c.9-1.9,2.7-3.3,4.7-3.8-.2,0-.4,0-.6,0-1.8-.3-3.3.5-4,2l-1,2.1c-.3.7-1.1,1.1-1.9,1-.2,0-.3,0-.5-.2-.9-.4-1.2-1.5-.8-2.3l1-2.1c1.2-2.6,3.9-4.2,6.7-4l-1.6-.3h-.2c-1.7-.6-3.6.2-4.4,1.9l-1,2.1c-.4.7-1.1,1.1-1.9,1-.2,0-.3,0-.5-.2-.9-.4-1.2-1.5-.8-2.3l1-2.1c1.5-3.1,5-4.7,8.4-3.8l10.3.3c5.3-1,2.1-10.6-2.5-11-.5,0-.8,0-1,0-18.3-2.2-33.1-17-35.3-35.3-1.6-13.2,3.1-25.3,11.6-33.8,1-1,2.1-1.9,3.1-2.8-3.4.6-6.8.2-9.9-1-2.1-.8-4.4-.7-6.6,0l-6.4,4.2,3.5-6.9c.3-.8.4-1.7.4-2.5,0-1.5-.3-2.9-1-4.3-.5-1.1-.9-2.2-1.2-3.4-1.1-4.9-.2-9.9,2.3-13.9,2.5-4,6.5-7,11.4-8.1,4.9-1.1,9.9-.2,13.8,2.3,4,2.5,7,6.5,8.2,11.4,1.1,4.9,5.7,13.1,10.9,13.1,11.2,0,21.4,4.6,28.7,11.9,7.3,7.4,11.9,17.5,11.9,28.7,0,16.7,5.9,28.9,9.6,35,2.5,4.1-.3,9.6-5.1,9.6h0Z"/>
    </clipPath>
    <clipPath id="clippath-1">
      <rect class="st0" x="151.5" y="26.6" width="125.6" height="160.8"/>
    </clipPath>
    <clipPath id="clippath-2">
      <rect class="st0" x="151.5" y="26.6" width="125.6" height="160.8"/>
    </clipPath>
  </defs>
  <g class="st11">
    <g class="st9">
      <g class="st10">
        <image class="st8" width="131" height="169" transform="translate(151.4 26.1) scale(1)" xlink:href="Urbanex_mail_expand-1.png"/>
      </g>
    </g>
  </g>
  <path class="st1" d="M258,152.1h0s-12.6-1-25.2-2.1c-2.9-.2-5.7,1.1-7.3,3.5,0,0-4.2,5.8-6.5,9.1-1,1.4-2.3,2.7-3.7,3.6l-.5.3c-2.1,1.1-8.6,2.4-10.5,2.7-1.2.2-2.2.9-2.7,2l-1,2.1c-.3.7-1.1,1.1-1.9,1-.2,0-.3,0-.5-.2-.9-.4-1.2-1.5-.8-2.4l1-2.1c.9-1.9,2.7-3.3,4.7-3.8-.2,0-.4,0-.6,0-1.8-.3-3.3.5-4,2l-1,2.1c-.3.7-1.1,1.1-1.9,1-.2,0-.3,0-.5-.2-.9-.4-1.2-1.5-.8-2.3l1-2.1c1.2-2.6,3.9-4.2,6.7-4l-1.6-.3h-.2c-1.7-.6-3.6.2-4.4,1.9l-1,2.1c-.4.7-1.1,1.1-1.9,1-.2,0-.3,0-.5-.2-.9-.4-1.2-1.5-.8-2.3l1-2.1c1.5-3.1,5-4.7,8.4-3.8l10.3.3c5.3-1,2.1-10.6-2.5-11-.5,0-.8,0-1-.1-18.3-2.2-33.1-17-35.3-35.3-1.6-13.2,3.1-25.3,11.6-33.8,1-1,2.1-1.9,3.1-2.8-3.4.6-6.8.2-9.9-1-2.1-.8-4.4-.7-6.6,0l-6.4,4.2,3.5-6.9c.3-.8.4-1.7.4-2.5,0-1.5-.3-2.9-1-4.3-.5-1.1-.9-2.2-1.2-3.4-1.1-4.9-.2-9.9,2.3-13.9,2.5-4,6.5-7,11.4-8.1,4.9-1.1,9.9-.2,13.8,2.3,4,2.5,7,6.5,8.2,11.4s5.7,13.1,10.9,13.1c11.2,0,21.4,4.6,28.7,11.9,7.3,7.4,11.9,17.5,11.9,28.7,0,16.7,5.9,28.9,9.6,35,2.5,4.1-.3,9.6-5.1,9.6h0Z"/>
  <path class="st2" d="M179.2,63.5c0,1.7-1.4,3.1-3.1,3.1s-3.2-1.4-3.1-3.1c.1-1.6,1.7-2.8,3.3-2.7,1.4,0,2.7,1.2,2.9,2.7h0Z"/>
  <path class="st7" d="M204.7,89.7l-36.6,14c-1.9.7-3.9-.1-4.8-1.9l-16.6-35.5c.2-.1.3-.2.5-.4,1.3-.9,3.1-1.2,4.7-.5l49.6,20.1c1.6.7,2.7,2.1,3,3.7,0,.2,0,.4,0,.6h0Z"/>
  <path class="st7" d="M204.3,92l-11.2,27.6c-1,2.6-4,3.8-6.6,2.8l-49.6-20.1c-2.6-1-3.8-4-2.8-6.6l11.2-27.6c.3-.8.8-1.4,1.4-1.9l16.6,35.5c.8,1.8,2.9,2.6,4.8,1.9l36.6-14c0,.8,0,1.6-.4,2.3h0Z"/>
  <path class="st4" d="M179.2,75.3c-2.1-.9-5.5.9-7.6,1.6l-7.1,3.2,3.6-6.8c.8-2.3.5-4.7-.4-6.9"/>
  <circle class="st6" cx="170" cy="69.8" r="3.1"/>
  <path class="st1" d="M209.1,122.6c3.2,8.4,11.3,14,20.3,14.8"/>
  <path class="st1" d="M234.1,135s2.9,4.8,13.5,3.1"/>
  <path class="st1" d="M241,140s2.9,4.8,13.5,3.1"/>
  <path class="st5" d="M147.2,50.3h-12.2s-.1,0-.1.1c.3,1.9,1,4.5,2.6,7.1,1.4,2.2,3,3.9,4.7,5.3,1.5,1.2.3,3.6-1.5,3.2-4.5-1.1-9.6-3.3-13.9-7.6-2.6-2.7-4.3-5.5-5.4-8,0,0,0,0-.1,0H26.5c-13.1,0-24.6-9.9-25.4-23-.5-7.4,2.4-14.2,7.2-19.1C12.7,3.8,18.8,1,25.6,1h121.6c13.6,0,24.6,11,24.6,24.6s-2.8,12.9-7.2,17.4c-4.5,4.4-10.6,7.2-17.4,7.2h0Z"/>
  <g class="st8">
    <g class="st8">
      <path class="st3" d="M43,32c0,.2,0,.4-.3.7-1.1,1.5-3.5,2.6-5.7,2.6-3.7,0-7-2.6-7-7.4s3.1-7.5,6.8-7.5,5.6,2.6,5.6,5.4-.1.7-.5.8l-9.4,2.8c.7,2.5,2.7,4.3,5.1,4.3s3.3-.8,4.2-1.9c.2-.3.4-.4.7-.4s.5.2.5.6ZM32.2,27c0,.4,0,.7,0,1.1l7.2-2.2c.5-.1.6-.3.6-.8,0-1.4-1.4-3.3-3.6-3.3s-4.3,2.1-4.3,5.2Z"/>
      <path class="st3" d="M68.7,34.4c0,.3-.3.5-.7.5-.8,0-1.3,0-2.4,0s-1.5,0-2.3,0-.7-.2-.7-.5c0-1,2-.2,2-2.1s0-.5,0-.7l-.8-5.2c-.2-1.5-.6-4-2.9-4s-3.5,1.3-3.5,4.1v5.4c0,2.4,1.9,1.5,1.9,2.5s-.2.5-.5.5c-.6,0-1.5,0-2.3,0s-1.7,0-2.3,0-.6-.3-.6-.5c0-1,1.9-.1,1.9-2.5v-5.5c0-1.6-.3-4-2.8-4s-3.8,1.5-3.8,4.4v5.1c0,2.4,1.9,1.5,1.9,2.5s-.2.5-.5.5c-.6,0-1.5,0-2.4,0s-1.7,0-2.3,0-.6-.3-.6-.5c0-1,1.9-.1,1.9-2.5v-7.3c0-1.7-2.1-.7-2.1-1.8s.4-.7,1.7-1.4c1.3-.7,1.6-.7,1.9-.7.4,0,.5.4.5.9v1.8c.9-1.5,2.3-2.7,4.4-2.7s3.2,1.3,3.7,2.8c.8-1.6,2.2-2.8,4.3-2.8,3.4,0,4.1,3.1,4.5,5.7l.8,5.3c.4,2.7,2.2,1.7,2.2,2.8Z"/>
      <path class="st3" d="M84,33.9c0,.5-1,1.1-2,1.1s-2.1-.7-2.5-2.3c-1.1,1.4-3,2.4-5.2,2.4s-4.8-1.7-4.8-4.2,2.2-4.5,5.7-4.5,2.3.3,3.5.6v-.4c-.5-3.4-1.7-4.4-3.6-4.4s-2.5.7-3.6,1.8c-.2.2-.4.3-.6.3-.3,0-.5-.2-.5-.5s0-.4.3-.7c.9-1.4,3-2.6,5.1-2.6,3.7,0,4.3,2.7,4.7,5.4l.7,4.9c.3,2.2.9,2.4,2.4,2.7.3,0,.4.2.4.4ZM79.3,31.2l-.4-2.8c-1.1-.4-2.3-.7-3.4-.7-2.6,0-3.9,1.2-3.9,3s1.3,2.9,3.2,2.9,3.6-1.1,4.4-2.5Z"/>
      <path class="st3" d="M84.9,34.4c0-1,1.9-.1,1.9-2.5v-7.3c0-1.7-2.1-.7-2.1-1.8s.4-.7,1.7-1.4,1.6-.7,1.8-.7c.4,0,.5.3.5.9v10.4c0,2.4,1.9,1.5,1.9,2.5s-.2.5-.5.5c-.6,0-1.5,0-2.4,0s-1.7,0-2.3,0-.6-.3-.6-.5ZM85.7,15.9c0-1,.9-2.1,2.2-2.1s1.4.5,1.4,1.3-1,2.1-2.3,2.1-1.3-.4-1.3-1.3Z"/>
      <path class="st3" d="M92.3,34.4c0-1,1.9-.1,1.9-2.5v-14.7c0-1.7-2.1-.7-2.1-1.8s.4-.7,1.7-1.4c1.3-.7,1.6-.7,1.8-.7.4,0,.5.3.5.9v17.7c0,2.4,1.9,1.5,1.9,2.5s-.2.5-.5.5c-.6,0-1.5,0-2.4,0s-1.7,0-2.3,0-.6-.3-.6-.5Z"/>
      <path class="st3" d="M122.6,33.5c0,.5-.4.8-2,1.2-1.1.3-1.6.4-1.8.4-.5,0-.5-.5-.5-.9v-1.7c-.9,1.5-2.3,2.7-4.8,2.7s-4.7-2.2-4.7-5.6v-5.1c0-1.7-2.3-1-2.3-2s.4-.7,1.9-1.3c1.3-.5,1.7-.6,1.9-.6.5,0,.5.5.5.9v7.9c0,2.3.6,4,3.2,4s4.3-1.6,4.3-4.5v-4.4c0-1.7-2.5-.9-2.5-2s.5-.7,2.1-1.3c1.2-.5,1.7-.5,1.9-.5.5,0,.5.4.5.9v9.9c0,1.7,2.4,1.2,2.4,2.1Z"/>
      <path class="st3" d="M125.7,34.4l-.9-1.8c-.5-1.1-.8-1.5-.8-1.8s.2-.5.5-.5.6.3.8.5c1.9,1.9,3.8,3,5.9,3s3.3-1.1,3.3-2.6-1.5-2.1-4.2-2.7c-2.7-.7-5.8-1.5-5.8-4.2s1.8-3.7,4.6-3.7,2.8.5,3.2.5.5-.6,1-.6.7.4,1,.9l.9,1.5c.3.5.6,1.1.6,1.3s-.2.5-.5.5-.6-.3-.8-.5c-1.4-1.3-3.3-2.5-5.2-2.5s-2.6.9-2.6,2,1.3,1.9,4.3,2.6c2.9.7,5.8,1.5,5.8,4.5s-2.1,4.1-5.3,4.1-3.3-.7-3.7-.7-.6.7-1.2.7-.6-.5-.8-.8Z"/>
      <path class="st3" d="M141.3,32.2c.9,0,1.6.5,1.6,1.4s-.8,1.4-1.8,1.4-1.6-.5-1.6-1.3.8-1.5,1.8-1.5ZM141.2,30.1c.3,0,.5-.2.6-.5.4-7.5.5-12.7.5-14.2s-.4-1.3-1.1-1.3-1.1.5-1.1,1.3c0,1.5.2,6.7.5,14.2,0,.3.2.5.5.5Z"/>
    </g>
  </g>
</svg>