<?xml version="1.0" encoding="UTF-8"?><svg id="Layer_2" xmlns="http://www.w3.org/2000/svg" viewBox="0 0 270.57 59.69"><defs><style>.cls-1{fill:#fff;}</style></defs><g id="Layer_1-2"><path class="cls-1" d="M20.1,59.31c-5.7,0-10.57-2.05-14.47-6.08-3.49-3.62-5.25-8.29-5.25-13.88V5.29h.38c4.56,0,8.27,3.71,8.27,8.27v23.62c0,4.4.72,7.64,2.13,9.65,2.1,2.88,5.11,4.35,8.94,4.35s6.88-1.46,8.99-4.35c1.41-1.94,2.13-5.18,2.13-9.64V5.29h.38c4.56,0,8.27,3.71,8.27,8.27v25.79c0,5.59-1.77,10.26-5.25,13.88-3.92,4.04-8.8,6.08-14.51,6.08Z"/><path class="cls-1" d="M31.59,5.66c4.36,0,7.89,3.53,7.89,7.89v25.79c0,5.51-1.72,10.06-5.15,13.62-3.86,3.98-8.61,5.97-14.24,5.97s-10.36-1.99-14.2-5.97c-3.43-3.57-5.15-8.11-5.15-13.62V5.66c4.36,0,7.9,3.54,7.9,7.9v23.62c0,4.49.73,7.78,2.2,9.86,2.19,3,5.28,4.51,9.25,4.51s7.1-1.5,9.29-4.51c1.47-2.01,2.2-5.3,2.2-9.86V5.66M31.59,4.91h-.75v32.27c0,4.38-.69,7.55-2.06,9.42-2.06,2.83-4.9,4.2-8.68,4.2s-6.58-1.37-8.65-4.2c-1.36-1.93-2.06-5.1-2.06-9.42V13.56c0-4.77-3.88-8.65-8.65-8.65h-.75v34.44c0,5.69,1.8,10.45,5.36,14.14,3.97,4.11,8.93,6.2,14.74,6.2s10.78-2.08,14.77-6.19c3.56-3.7,5.36-8.46,5.36-14.15V13.56c0-4.77-3.88-8.64-8.64-8.64h0Z"/><path class="cls-1" d="M50.73,58.36V24.61h8.38v2.41c1.17-1.14,2.24-1.96,3.18-2.44,1.15-.59,2.54-.89,4.1-.89,2.07,0,4.25.68,6.5,2.02l.3.18-3.84,7.69-.36-.26c-1.37-.99-2.73-1.49-4.02-1.49-3.94,0-5.86,2.96-5.86,9.05v9.49c0,4.41-3.59,8-8,8h-.38Z"/><path class="cls-1" d="M66.4,24.07c2.01,0,4.11.65,6.3,1.96l-3.49,6.98c-1.45-1.04-2.86-1.56-4.24-1.56-4.15,0-6.23,3.14-6.23,9.42v9.49c0,4.21-3.42,7.63-7.63,7.63V24.98h7.63v2.95c1.4-1.47,2.64-2.47,3.73-3.02,1.11-.56,2.42-.85,3.93-.85M66.4,23.32c-1.63,0-3.06.31-4.27.93-.8.4-1.68,1.04-2.64,1.9v-1.91h-9.13v34.51h.75c4.62,0,8.38-3.76,8.38-8.38v-9.49c0-8.67,4.13-8.67,5.48-8.67,1.21,0,2.49.48,3.8,1.42l.72.51.39-.79,3.49-6.98.31-.62-.6-.36c-2.3-1.37-4.55-2.07-6.69-2.07h0Z"/><path class="cls-1" d="M94.93,59.31c-3.64,0-6.95-1.32-9.86-3.92v2.97h-8.38V.38h.38c4.41,0,8,3.59,8,8v19.53c2.96-2.8,6.31-4.22,9.99-4.22.91,0,1.85.09,2.8.26,3.11.56,6.03,2.14,8.24,4.46,3.25,3.42,4.9,7.78,4.9,12.98s-1.54,9.48-4.57,12.86c-3.02,3.37-6.89,5.07-11.5,5.07ZM93.71,31.32c-2.68,0-4.89.95-6.57,2.82-1.67,1.86-2.52,4.33-2.52,7.34s.84,5.6,2.48,7.44c1.66,1.9,3.79,2.83,6.5,2.83,2.52,0,4.64-.95,6.29-2.82,1.69-1.9,2.55-4.33,2.55-7.21,0-3.06-.83-5.58-2.48-7.48-1.66-1.94-3.76-2.92-6.26-2.92Z"/><path class="cls-1" d="M77.07.75c4.21,0,7.63,3.42,7.63,7.63v20.43c3.05-3.16,6.51-4.74,10.37-4.74.89,0,1.8.08,2.73.25,3.04.55,5.9,2.1,8.03,4.34,3.2,3.36,4.8,7.6,4.8,12.72s-1.49,9.29-4.47,12.61c-2.96,3.3-6.7,4.95-11.22,4.95-3.82,0-7.23-1.47-10.23-4.41v3.46h-7.63V.75M93.61,52.13c2.64,0,4.84-.98,6.57-2.95,1.76-1.99,2.64-4.47,2.64-7.45,0-3.16-.86-5.74-2.57-7.73-1.74-2.03-3.92-3.05-6.54-3.05-2.8,0-5.09.98-6.85,2.95-1.74,1.94-2.61,4.47-2.61,7.59s.86,5.77,2.58,7.69c1.72,1.97,3.97,2.95,6.78,2.95M77.07,0h-.75v58.74h9.13v-2.53c2.83,2.31,6.01,3.48,9.48,3.48,4.72,0,8.68-1.75,11.78-5.2,3.1-3.45,4.66-7.86,4.66-13.11s-1.68-9.75-5-13.24c-2.26-2.37-5.25-3.99-8.44-4.57-.97-.17-1.93-.26-2.86-.26-3.52,0-6.75,1.26-9.62,3.75V8.38c0-4.62-3.76-8.38-8.38-8.38h0ZM93.61,51.38c-2.6,0-4.63-.88-6.21-2.69-1.59-1.77-2.39-4.19-2.39-7.2s.81-5.3,2.42-7.09c1.63-1.82,3.68-2.7,6.29-2.7,2.41,0,4.36.91,5.97,2.79,1.59,1.84,2.39,4.28,2.39,7.24,0,2.78-.83,5.12-2.45,6.96-1.6,1.82-3.57,2.7-6.01,2.7h0Z"/><path class="cls-1" d="M132.89,59.31c-4.65,0-8.55-1.71-11.6-5.07-3.01-3.43-4.54-7.75-4.54-12.86s1.58-9.42,4.71-12.81c2.17-2.35,5.09-3.98,8.23-4.59,1.02-.2,2.03-.3,3-.3,3.66,0,7.01,1.42,9.96,4.22v-3.31h.38c4.43,0,8.03,3.6,8.03,8.04v25.72h-8.41v-2.99c-3.02,2.61-6.3,3.94-9.76,3.94ZM134.11,31.32c-2.5,0-4.61.96-6.29,2.86-1.67,1.93-2.52,4.35-2.52,7.21,0,3.06.83,5.58,2.45,7.48,1.65,1.91,3.77,2.88,6.29,2.88,2.7,0,4.91-.94,6.57-2.79,1.67-1.93,2.52-4.42,2.52-7.41s-.85-5.48-2.52-7.41c-1.68-1.9-3.8-2.82-6.49-2.82Z"/><path class="cls-1" d="M132.69,24.07c3.84,0,7.29,1.58,10.34,4.74v-3.83c4.23,0,7.66,3.43,7.66,7.66v25.35h-7.66v-3.46c-3.14,2.94-6.52,4.41-10.13,4.41-4.56,0-8.34-1.65-11.32-4.95-2.96-3.37-4.44-7.57-4.44-12.61s1.54-9.22,4.61-12.55c2.11-2.29,4.97-3.88,8.02-4.47,1-.19,1.98-.29,2.93-.29M134.04,52.13c2.82,0,5.11-.97,6.85-2.92,1.74-2.01,2.61-4.56,2.61-7.66s-.87-5.65-2.61-7.66c-1.74-1.97-4-2.95-6.78-2.95-2.62,0-4.81.99-6.57,2.98-1.74,2.01-2.61,4.5-2.61,7.46,0,3.16.85,5.74,2.54,7.73,1.74,2.01,3.93,3.02,6.57,3.02M132.69,23.32c-1,0-2.03.1-3.07.31-3.22.63-6.21,2.3-8.43,4.7-3.19,3.46-4.8,7.85-4.8,13.06s1.56,9.61,4.63,13.1c3.12,3.46,7.12,5.2,11.88,5.2,3.31,0,6.46-1.18,9.38-3.51v2.57h9.16v-26.1c0-4.64-3.77-8.41-8.41-8.41h-.75v2.83c-2.87-2.49-6.09-3.75-9.59-3.75h0ZM134.04,51.38c-2.44,0-4.4-.9-6-2.76-1.56-1.83-2.36-4.27-2.36-7.24,0-2.76.82-5.1,2.43-6.97,1.62-1.83,3.59-2.72,6-2.72,2.58,0,4.61.88,6.22,2.69,1.61,1.85,2.42,4.27,2.42,7.16s-.82,5.31-2.43,7.17c-1.6,1.78-3.65,2.66-6.28,2.66h0Z"/><path class="cls-1" d="M180.7,58.36v-18.81c0-3.16-.43-5.35-1.28-6.52-.81-1.16-2.32-1.74-4.51-1.74-2.41,0-4.07.76-5.07,2.33-1,1.58-1.5,4.42-1.5,8.44v8.27c0,4.43-3.6,8.04-8.03,8.04h-.38V24.61h8.41v2.56c2.57-2.3,5.48-3.47,8.64-3.47,3.93,0,7.05,1.26,9.26,3.75,1.91,2.11,2.88,5.59,2.88,10.31v12.57c0,4.43-3.6,8.04-8.04,8.04h-.38Z"/><path class="cls-1" d="M176.98,24.07c3.84,0,6.83,1.21,8.98,3.63,1.85,2.05,2.78,5.41,2.78,10.07v12.57c0,4.23-3.43,7.66-7.66,7.66v-18.44c0-3.25-.45-5.5-1.35-6.74-.88-1.27-2.49-1.9-4.82-1.9-2.53,0-4.32.84-5.39,2.51-1.04,1.65-1.56,4.53-1.56,8.64v8.27c0,4.23-3.43,7.66-7.66,7.66V24.98h7.66v3.05c2.67-2.64,5.67-3.96,9.01-3.96M176.98,23.32c-3.01,0-5.78,1.02-8.26,3.03v-2.12h-9.16v34.51h.75c4.64,0,8.41-3.77,8.41-8.41v-8.27c0-3.95.49-6.72,1.44-8.24.92-1.45,2.48-2.16,4.75-2.16,2.06,0,3.47.53,4.2,1.58.81,1.12,1.22,3.24,1.22,6.31v19.19h.75c4.64,0,8.41-3.77,8.41-8.41v-12.57c0-4.82-1-8.38-2.97-10.57-2.28-2.57-5.49-3.87-9.54-3.87h0Z"/><path class="cls-1" d="M213.14,59.31c-5.01,0-9.09-1.64-12.13-4.86-3.04-3.24-4.58-7.59-4.58-12.93s1.49-9.64,4.44-12.92c2.97-3.25,6.97-4.9,11.87-4.9s8.92,1.6,11.8,4.76c2.85,3.13,4.3,7.52,4.3,13.03l-.04,2.17h-23.62c.25,2.42,1.09,4.38,2.5,5.83,1.48,1.5,3.41,2.26,5.73,2.26,1.81,0,3.32-.43,4.49-1.28,1.17-.87,2.54-2.52,4.07-4.92l.19-.3,7.08,3.95-.19.33c-1.01,1.71-2.08,3.2-3.2,4.42-1.13,1.23-2.35,2.25-3.64,3.05-1.29.8-2.71,1.39-4.21,1.76-1.49.37-3.13.55-4.87.55ZM220.1,36.67c-1.09-3.6-3.45-5.35-7.2-5.35-.88,0-1.71.14-2.48.4-.77.27-1.48.66-2.11,1.16-.63.5-1.18,1.12-1.63,1.82-.37.58-.67,1.24-.9,1.96h14.33Z"/><path class="cls-1" d="M212.73,24.07c4.86,0,8.7,1.55,11.52,4.64,2.8,3.07,4.2,7.33,4.2,12.78l-.03,1.8h-23.66c.2,2.71,1.08,4.87,2.64,6.47,1.56,1.58,3.56,2.37,6,2.37,1.9,0,3.47-.45,4.71-1.36,1.22-.9,2.61-2.57,4.17-5.02l6.44,3.59c-1,1.69-2.04,3.14-3.15,4.35-1.11,1.21-2.29,2.2-3.56,2.98s-2.63,1.35-4.1,1.71c-1.47.36-3.06.54-4.78.54-4.92,0-8.88-1.58-11.86-4.74-2.99-3.19-4.48-7.41-4.48-12.67s1.45-9.44,4.34-12.67c2.91-3.19,6.78-4.78,11.59-4.78M205.28,37.04h15.32c-1.06-4.07-3.63-6.1-7.7-6.1-.92,0-1.79.14-2.61.42-.81.28-1.56.69-2.22,1.22-.66.53-1.24,1.17-1.71,1.92-.48.75-.83,1.59-1.08,2.54M212.73,23.32c-5.01,0-9.1,1.69-12.14,5.02-3.01,3.36-4.54,7.79-4.54,13.18s1.57,9.87,4.68,13.19c3.12,3.31,7.29,4.98,12.41,4.98,1.77,0,3.44-.19,4.96-.56,1.54-.38,2.99-.99,4.32-1.8,1.32-.81,2.57-1.86,3.72-3.11,1.13-1.23,2.22-2.74,3.24-4.48l.39-.66-.67-.37-6.44-3.59-.62-.34-.38.6c-1.51,2.36-2.84,3.98-3.98,4.82-1.1.8-2.54,1.21-4.26,1.21-2.25,0-4.04-.7-5.47-2.15-1.27-1.3-2.06-3.05-2.35-5.19h23.56v-.74s.05-1.8.05-1.8c0-5.62-1.48-10.09-4.4-13.3-2.96-3.24-7.02-4.89-12.08-4.89h0ZM206.3,36.29c.19-.5.42-.97.69-1.39.43-.67.95-1.25,1.55-1.73.59-.47,1.27-.84,2-1.1.73-.25,1.53-.38,2.36-.38,3.39,0,5.58,1.51,6.68,4.6h-13.28Z"/><path class="cls-1" d="M263.23,58.36c-2.2,0-4.25-.99-5.61-2.73l-2.41-3.06c-1.22-1.55-3.05-2.44-5.02-2.44s-3.76.87-4.97,2.38l-2.57,3.19c-1.36,1.69-3.39,2.66-5.56,2.66h-6.87l11.73-14.28c1.92-2.33,1.95-5.62.09-7.99l-8.99-11.48h6.51c2.21,0,4.33,1.05,5.67,2.8,1.22,1.59,3.07,2.51,5.08,2.51s3.82-.9,5.04-2.46l.07-.1c1.36-1.75,3.42-2.75,5.63-2.75h6.83l-9.31,11.56c-1.88,2.34-1.9,5.62-.04,7.97l11.26,14.23h-6.57Z"/><path class="cls-1" d="M267.09,24.98l-8.82,10.94c-1.98,2.46-2,5.96-.04,8.44l10.78,13.63h-5.8c-2.08,0-4.04-.95-5.32-2.58l-2.41-3.07c-1.35-1.72-3.34-2.58-5.32-2.58-1.96,0-3.91.84-5.27,2.52l-2.57,3.19c-1.28,1.59-3.22,2.52-5.27,2.52h-6.08l11.23-13.67c2.01-2.45,2.05-5.97.1-8.46l-8.52-10.88h5.74c2.11,0,4.09.98,5.37,2.66h0c1.35,1.77,3.36,2.66,5.37,2.66s3.98-.87,5.34-2.61l.07-.1c1.28-1.65,3.25-2.61,5.34-2.61h6.05M268.66,24.23h-7.61c-2.33,0-4.49,1.06-5.93,2.9l-.07.1c-1.15,1.47-2.88,2.32-4.74,2.32s-3.63-.86-4.78-2.36c-1.41-1.85-3.64-2.95-5.97-2.95h-7.28l.95,1.21,8.52,10.88c1.75,2.24,1.71,5.33-.09,7.52l-11.23,13.67-1.01,1.23h7.67c2.29,0,4.42-1.02,5.85-2.8l2.57-3.19c1.15-1.42,2.85-2.24,4.68-2.24,1.86,0,3.58.84,4.73,2.3l2.41,3.07c1.43,1.82,3.59,2.87,5.91,2.87h7.34l-.96-1.22-10.78-13.63c-1.75-2.22-1.74-5.3.03-7.5l8.81-10.94.98-1.22h0Z"/></g></svg>